<svg width="9" height="18" viewBox="0 0 9 18" fill="none" xmlns="http://www.w3.org/2000/svg">
    <path d="M0.20034 0.211819C0.0719038 0.350299 0 0.536197 0 0.729774C0 0.923352 0.0719038 1.10925 0.20034 1.24773L7.37589 9L0.20034 16.7507C0.0719038 16.8892 0 17.0751 0 17.2687C0 17.4623 0.0719038 17.6482 0.20034 17.7866C0.262769 17.8542 0.33741 17.9078 0.419857 17.9445C0.502305 17.9811 0.590888 18 0.680378 18C0.769869 18 0.858452 17.9811 0.9409 17.9445C1.02335 17.9078 1.09799 17.8542 1.16042 17.7866L8.79098 9.54122C8.92499 9.39642 9 9.20221 9 9C9 8.79779 8.92499 8.60358 8.79098 8.45878L1.16042 0.21337C1.09799 0.145844 1.02335 0.0921741 0.9409 0.0555273C0.858452 0.0188806 0.769869 0 0.680378 0C0.590888 0 0.502305 0.0188806 0.419857 0.0555273C0.33741 0.0921741 0.262769 0.145844 0.20034 0.21337V0.211819Z" fill="white"/>
</svg>

