<svg width="100" height="100" viewBox="0 0 100 100" fill="none" xmlns="http://www.w3.org/2000/svg">
<path d="M98.9341 1.0636C99.4549 1.58468 99.8053 2.25141 99.9393 2.97579C100.073 3.70016 99.9844 4.44813 99.6844 5.12097L58.476 97.8359C58.188 98.4843 57.717 99.0345 57.1207 99.419C56.5244 99.8034 55.8288 100.005 55.1193 99.9999C54.4098 99.9945 53.7174 99.782 53.127 99.3885C52.5366 98.995 52.0741 98.4376 51.7961 97.7849L36.9284 63.0678L2.20311 48.1932C1.55278 47.9135 0.99807 47.4503 0.606813 46.8603C0.215556 46.2704 0.00471518 45.5792 7.81652e-05 44.8713C-0.00455885 44.1634 0.197209 43.4694 0.580704 42.8744C0.964198 42.2793 1.5128 41.809 2.1594 41.5207L94.8767 0.313311C95.5486 0.0150023 96.2951 -0.0729797 97.018 0.0609345C97.7409 0.194849 98.4064 0.544389 98.9269 1.0636H98.9341ZM12.7438 44.7841L41.1315 56.949C41.99 57.319 42.6733 58.0049 43.0401 58.8647L55.2052 87.2518L89.1802 10.81L12.7438 44.7841Z" fill="white"/>
</svg>
